<?xml version='1.0' encoding='UTF-8'?>
<svg width="82mm" height="82mm" version="1.1" viewBox="0 0 82 82" xmlns="http://www.w3.org/2000/svg"><path d="M8,8H10V10H8zM10,8H12V10H10zM12,8H14V10H12zM14,8H16V10H14zM16,8H18V10H16zM18,8H20V10H18zM20,8H22V10H20zM30,8H32V10H30zM32,8H34V10H32zM34,8H36V10H34zM36,8H38V10H36zM40,8H42V10H40zM42,8H44V10H42zM46,8H48V10H46zM50,8H52V10H50zM54,8H56V10H54zM60,8H62V10H60zM62,8H64V10H62zM64,8H66V10H64zM66,8H68V10H66zM68,8H70V10H68zM70,8H72V10H70zM72,8H74V10H72zM8,10H10V12H8zM20,10H22V12H20zM26,10H28V12H26zM34,10H36V12H34zM36,10H38V12H36zM38,10H40V12H38zM40,10H42V12H40zM42,10H44V12H42zM48,10H50V12H48zM50,10H52V12H50zM52,10H54V12H52zM60,10H62V12H60zM72,10H74V12H72zM8,12H10V14H8zM12,12H14V14H12zM14,12H16V14H14zM16,12H18V14H16zM20,12H22V14H20zM24,12H26V14H24zM26,12H28V14H26zM28,12H30V14H28zM34,12H36V14H34zM38,12H40V14H38zM40,12H42V14H40zM42,12H44V14H42zM44,12H46V14H44zM46,12H48V14H46zM48,12H50V14H48zM50,12H52V14H50zM52,12H54V14H52zM54,12H56V14H54zM56,12H58V14H56zM60,12H62V14H60zM64,12H66V14H64zM66,12H68V14H66zM68,12H70V14H68zM72,12H74V14H72zM8,14H10V16H8zM12,14H14V16H12zM14,14H16V16H14zM16,14H18V16H16zM20,14H22V16H20zM24,14H26V16H24zM28,14H30V16H28zM30,14H32V16H30zM32,14H34V16H32zM36,14H38V16H36zM38,14H40V16H38zM40,14H42V16H40zM46,14H48V16H46zM52,14H54V16H52zM60,14H62V16H60zM64,14H66V16H64zM66,14H68V16H66zM68,14H70V16H68zM72,14H74V16H72zM8,16H10V18H8zM12,16H14V18H12zM14,16H16V18H14zM16,16H18V18H16zM20,16H22V18H20zM24,16H26V18H24zM26,16H28V18H26zM28,16H30V18H28zM30,16H32V18H30zM32,16H34V18H32zM38,16H40V18H38zM42,16H44V18H42zM44,16H46V18H44zM50,16H52V18H50zM54,16H56V18H54zM60,16H62V18H60zM64,16H66V18H64zM66,16H68V18H66zM68,16H70V18H68zM72,16H74V18H72zM8,18H10V20H8zM20,18H22V20H20zM24,18H26V20H24zM26,18H28V20H26zM30,18H32V20H30zM32,18H34V20H32zM34,18H36V20H34zM38,18H40V20H38zM40,18H42V20H40zM42,18H44V20H42zM50,18H52V20H50zM60,18H62V20H60zM72,18H74V20H72zM8,20H10V22H8zM10,20H12V22H10zM12,20H14V22H12zM14,20H16V22H14zM16,20H18V22H16zM18,20H20V22H18zM20,20H22V22H20zM24,20H26V22H24zM28,20H30V22H28zM32,20H34V22H32zM36,20H38V22H36zM40,20H42V22H40zM44,20H46V22H44zM48,20H50V22H48zM52,20H54V22H52zM56,20H58V22H56zM60,20H62V22H60zM62,20H64V22H62zM64,20H66V22H64zM66,20H68V22H66zM68,20H70V22H68zM70,20H72V22H70zM72,20H74V22H72zM24,22H26V24H24zM26,22H28V24H26zM28,22H30V24H28zM30,22H32V24H30zM38,22H40V24H38zM48,22H50V24H48zM50,22H52V24H50zM52,22H54V24H52zM56,22H58V24H56zM8,24H10V26H8zM12,24H14V26H12zM14,24H16V26H14zM16,24H18V26H16zM18,24H20V26H18zM20,24H22V26H20zM28,24H30V26H28zM30,24H32V26H30zM32,24H34V26H32zM34,24H36V26H34zM36,24H38V26H36zM38,24H40V26H38zM40,24H42V26H40zM42,24H44V26H42zM52,24H54V26H52zM54,24H56V26H54zM60,24H62V26H60zM62,24H64V26H62zM64,24H66V26H64zM66,24H68V26H66zM68,24H70V26H68zM8,26H10V28H8zM10,26H12V28H10zM12,26H14V28H12zM16,26H18V28H16zM32,26H34V28H32zM40,26H42V28H40zM46,26H48V28H46zM54,26H56V28H54zM60,26H62V28H60zM62,26H64V28H62zM66,26H68V28H66zM68,26H70V28H68zM70,26H72V28H70zM72,26H74V28H72zM10,28H12V30H10zM18,28H20V30H18zM20,28H22V30H20zM24,28H26V30H24zM26,28H28V30H26zM30,28H32V30H30zM32,28H34V30H32zM38,28H40V30H38zM40,28H42V30H40zM44,28H46V30H44zM48,28H50V30H48zM50,28H52V30H50zM52,28H54V30H52zM56,28H58V30H56zM58,28H60V30H58zM60,28H62V30H60zM64,28H66V30H64zM68,28H70V30H68zM70,28H72V30H70zM8,30H10V32H8zM12,30H14V32H12zM14,30H16V32H14zM16,30H18V32H16zM18,30H20V32H18zM26,30H28V32H26zM32,30H34V32H32zM36,30H38V32H36zM40,30H42V32H40zM50,30H52V32H50zM52,30H54V32H52zM54,30H56V32H54zM58,30H60V32H58zM64,30H66V32H64zM66,30H68V32H66zM68,30H70V32H68zM70,30H72V32H70zM12,32H14V34H12zM16,32H18V34H16zM20,32H22V34H20zM22,32H24V34H22zM24,32H26V34H24zM28,32H30V34H28zM30,32H32V34H30zM44,32H46V34H44zM48,32H50V34H48zM54,32H56V34H54zM56,32H58V34H56zM58,32H60V34H58zM62,32H64V34H62zM64,32H66V34H64zM66,32H68V34H66zM70,32H72V34H70zM72,32H74V34H72zM8,34H10V36H8zM10,34H12V36H10zM12,34H14V36H12zM16,34H18V36H16zM24,34H26V36H24zM26,34H28V36H26zM30,34H32V36H30zM34,34H36V36H34zM36,34H38V36H36zM38,34H40V36H38zM40,34H42V36H40zM46,34H48V36H46zM48,34H50V36H48zM52,34H54V36H52zM54,34H56V36H54zM58,34H60V36H58zM68,34H70V36H68zM70,34H72V36H70zM72,34H74V36H72zM8,36H10V38H8zM10,36H12V38H10zM20,36H22V38H20zM22,36H24V38H22zM32,36H34V38H32zM52,36H54V38H52zM56,36H58V38H56zM58,36H60V38H58zM60,36H62V38H60zM62,36H64V38H62zM66,36H68V38H66zM68,36H70V38H68zM70,36H72V38H70zM16,38H18V40H16zM18,38H20V40H18zM22,38H24V40H22zM24,38H26V40H24zM26,38H28V40H26zM28,38H30V40H28zM30,38H32V40H30zM32,38H34V40H32zM40,38H42V40H40zM46,38H48V40H46zM48,38H50V40H48zM50,38H52V40H50zM58,38H60V40H58zM60,38H62V40H60zM66,38H68V40H66zM68,38H70V40H68zM8,40H10V42H8zM10,40H12V42H10zM16,40H18V42H16zM20,40H22V42H20zM22,40H24V42H22zM24,40H26V42H24zM28,40H30V42H28zM34,40H36V42H34zM42,40H44V42H42zM46,40H48V42H46zM52,40H54V42H52zM56,40H58V42H56zM58,40H60V42H58zM62,40H64V42H62zM64,40H66V42H64zM66,40H68V42H66zM72,40H74V42H72zM8,42H10V44H8zM10,42H12V44H10zM14,42H16V44H14zM18,42H20V44H18zM22,42H24V44H22zM24,42H26V44H24zM34,42H36V44H34zM40,42H42V44H40zM42,42H44V44H42zM46,42H48V44H46zM48,42H50V44H48zM54,42H56V44H54zM56,42H58V44H56zM58,42H60V44H58zM60,42H62V44H60zM62,42H64V44H62zM66,42H68V44H66zM68,42H70V44H68zM70,42H72V44H70zM72,42H74V44H72zM10,44H12V46H10zM18,44H20V46H18zM20,44H22V46H20zM30,44H32V46H30zM32,44H34V46H32zM36,44H38V46H36zM38,44H40V46H38zM40,44H42V46H40zM42,44H44V46H42zM48,44H50V46H48zM50,44H52V46H50zM52,44H54V46H52zM58,44H60V46H58zM60,44H62V46H60zM62,44H64V46H62zM64,44H66V46H64zM68,44H70V46H68zM8,46H10V48H8zM12,46H14V48H12zM22,46H24V48H22zM24,46H26V48H24zM42,46H44V48H42zM44,46H46V48H44zM46,46H48V48H46zM50,46H52V48H50zM52,46H54V48H52zM54,46H56V48H54zM58,46H60V48H58zM60,46H62V48H60zM62,46H64V48H62zM64,46H66V48H64zM66,46H68V48H66zM68,46H70V48H68zM70,46H72V48H70zM8,48H10V50H8zM12,48H14V50H12zM14,48H16V50H14zM20,48H22V50H20zM26,48H28V50H26zM28,48H30V50H28zM30,48H32V50H30zM34,48H36V50H34zM36,48H38V50H36zM38,48H40V50H38zM40,48H42V50H40zM52,48H54V50H52zM56,48H58V50H56zM58,48H60V50H58zM64,48H66V50H64zM66,48H68V50H66zM70,48H72V50H70zM8,50H10V52H8zM18,50H20V52H18zM22,50H24V52H22zM26,50H28V52H26zM28,50H30V52H28zM30,50H32V52H30zM36,50H38V52H36zM38,50H40V52H38zM44,50H46V52H44zM46,50H48V52H46zM48,50H50V52H48zM52,50H54V52H52zM54,50H56V52H54zM60,50H62V52H60zM68,50H70V52H68zM72,50H74V52H72zM8,52H10V54H8zM16,52H18V54H16zM20,52H22V54H20zM24,52H26V54H24zM34,52H36V54H34zM38,52H40V54H38zM40,52H42V54H40zM48,52H50V54H48zM50,52H52V54H50zM52,52H54V54H52zM58,52H60V54H58zM70,52H72V54H70zM8,54H10V56H8zM12,54H14V56H12zM14,54H16V56H14zM16,54H18V56H16zM18,54H20V56H18zM24,54H26V56H24zM32,54H34V56H32zM36,54H38V56H36zM38,54H40V56H38zM44,54H46V56H44zM50,54H52V56H50zM52,54H54V56H52zM58,54H60V56H58zM60,54H62V56H60zM68,54H70V56H68zM8,56H10V58H8zM12,56H14V58H12zM14,56H16V58H14zM16,56H18V58H16zM18,56H20V58H18zM20,56H22V58H20zM24,56H26V58H24zM26,56H28V58H26zM30,56H32V58H30zM32,56H34V58H32zM38,56H40V58H38zM40,56H42V58H40zM42,56H44V58H42zM46,56H48V58H46zM52,56H54V58H52zM56,56H58V58H56zM58,56H60V58H58zM60,56H62V58H60zM62,56H64V58H62zM64,56H66V58H64zM70,56H72V58H70zM24,58H26V60H24zM32,58H34V60H32zM34,58H36V60H34zM36,58H38V60H36zM40,58H42V60H40zM44,58H46V60H44zM46,58H48V60H46zM48,58H50V60H48zM50,58H52V60H50zM52,58H54V60H52zM54,58H56V60H54zM56,58H58V60H56zM64,58H66V60H64zM68,58H70V60H68zM72,58H74V60H72zM8,60H10V62H8zM10,60H12V62H10zM12,60H14V62H12zM14,60H16V62H14zM16,60H18V62H16zM18,60H20V62H18zM20,60H22V62H20zM26,60H28V62H26zM28,60H30V62H28zM34,60H36V62H34zM38,60H40V62H38zM40,60H42V62H40zM44,60H46V62H44zM50,60H52V62H50zM54,60H56V62H54zM56,60H58V62H56zM60,60H62V62H60zM64,60H66V62H64zM68,60H70V62H68zM70,60H72V62H70zM8,62H10V64H8zM20,62H22V64H20zM24,62H26V64H24zM26,62H28V64H26zM34,62H36V64H34zM36,62H38V64H36zM40,62H42V64H40zM46,62H48V64H46zM48,62H50V64H48zM50,62H52V64H50zM54,62H56V64H54zM56,62H58V64H56zM64,62H66V64H64zM66,62H68V64H66zM68,62H70V64H68zM70,62H72V64H70zM72,62H74V64H72zM8,64H10V66H8zM12,64H14V66H12zM14,64H16V66H14zM16,64H18V66H16zM20,64H22V66H20zM24,64H26V66H24zM26,64H28V66H26zM44,64H46V66H44zM46,64H48V66H46zM52,64H54V66H52zM56,64H58V66H56zM58,64H60V66H58zM60,64H62V66H60zM62,64H64V66H62zM64,64H66V66H64zM66,64H68V66H66zM8,66H10V68H8zM12,66H14V68H12zM14,66H16V68H14zM16,66H18V68H16zM20,66H22V68H20zM24,66H26V68H24zM32,66H34V68H32zM38,66H40V68H38zM40,66H42V68H40zM42,66H44V68H42zM46,66H48V68H46zM48,66H50V68H48zM50,66H52V68H50zM52,66H54V68H52zM54,66H56V68H54zM58,66H60V68H58zM64,66H66V68H64zM66,66H68V68H66zM68,66H70V68H68zM70,66H72V68H70zM72,66H74V68H72zM8,68H10V70H8zM12,68H14V70H12zM14,68H16V70H14zM16,68H18V70H16zM20,68H22V70H20zM24,68H26V70H24zM26,68H28V70H26zM28,68H30V70H28zM32,68H34V70H32zM34,68H36V70H34zM36,68H38V70H36zM50,68H52V70H50zM52,68H54V70H52zM54,68H56V70H54zM56,68H58V70H56zM58,68H60V70H58zM60,68H62V70H60zM62,68H64V70H62zM8,70H10V72H8zM20,70H22V72H20zM26,70H28V72H26zM28,70H30V72H28zM30,70H32V72H30zM32,70H34V72H32zM36,70H38V72H36zM40,70H42V72H40zM46,70H48V72H46zM50,70H52V72H50zM52,70H54V72H52zM58,70H60V72H58zM60,70H62V72H60zM64,70H66V72H64zM66,70H68V72H66zM68,70H70V72H68zM8,72H10V74H8zM10,72H12V74H10zM12,72H14V74H12zM14,72H16V74H14zM16,72H18V74H16zM18,72H20V74H18zM20,72H22V74H20zM24,72H26V74H24zM26,72H28V74H26zM28,72H30V74H28zM30,72H32V74H30zM32,72H34V74H32zM34,72H36V74H34zM40,72H42V74H40zM54,72H56V74H54zM56,72H58V74H56zM58,72H60V74H58zM62,72H64V74H62zM66,72H68V74H66zM70,72H72V74H70z" id="qr-path" fill="#000000" fill-opacity="1" fill-rule="nonzero" stroke="none" /></svg>